<?xml version="1.0" standalone="no"?>
<!DOCTYPE svg PUBLIC "-//W3C//DTD SVG 20010904//EN"
 "http://www.w3.org/TR/2001/REC-SVG-20010904/DTD/svg10.dtd">
<svg version="1.0" xmlns="http://www.w3.org/2000/svg"
 width="700.000000pt" height="700.000000pt" viewBox="0 0 700.000000 700.000000"
 preserveAspectRatio="xMidYMid meet">
<metadata>
Created by potrace 1.14, written by Peter Selinger 2001-2017
</metadata>
<g transform="translate(0.000000,700.000000) scale(0.100000,-0.100000)"
fill="#000000" stroke="none">
<path d="M3367 6464 c-1 -1 -42 -5 -91 -8 -49 -4 -92 -9 -95 -10 -3 -2 -33 -7
-66 -10 -33 -3 -69 -8 -80 -10 -11 -3 -53 -12 -94 -20 -161 -35 -371 -97 -476
-141 -204 -84 -389 -181 -545 -283 -484 -317 -896 -812 -1105 -1329 -20 -48
-40 -97 -44 -108 -63 -147 -138 -455 -165 -673 -26 -208 -26 -523 -1 -742 10
-80 55 -302 81 -400 71 -263 174 -505 320 -750 51 -86 170 -260 214 -313 6 -6
27 -32 48 -57 264 -317 567 -558 946 -751 265 -135 636 -254 885 -284 30 -4
62 -8 71 -10 45 -9 185 -18 275 -19 l100 -1 0 689 0 689 -80 3 c-538 21 -1052
347 -1312 834 -79 147 -150 360 -168 499 -4 30 -9 63 -11 75 -5 23 -5 309 0
341 23 148 20 134 46 235 100 390 367 744 720 954 212 126 485 208 725 219
l80 4 1 692 1 692 -89 -3 c-49 -2 -90 -3 -91 -4z"/>
<path d="M4977 6449 c-399 -95 -628 -512 -493 -901 106 -303 414 -494 735
-456 230 27 439 179 540 392 111 232 77 523 -84 721 -62 75 -85 96 -165 149
-156 103 -350 138 -533 95z"/>
<path d="M3554 5078 c-5 -7 -9 -2996 -5 -3135 1 -21 4 -22 69 -18 72 5 164 14
197 21 11 2 36 7 55 10 151 25 374 117 536 220 136 87 317 254 394 364 14 19
27 37 30 40 19 17 98 149 137 230 41 85 128 320 118 320 -3 0 -1 10 4 23 5 12
12 45 16 72 4 28 9 61 11 75 13 65 11 331 -2 419 -57 376 -212 676 -489 941
-234 225 -573 381 -900 415 -118 12 -165 13 -171 3z"/>
<path d="M5087 1924 c-1 -1 -24 -4 -52 -8 -229 -29 -427 -171 -529 -379 -55
-114 -69 -175 -71 -301 -3 -186 64 -352 195 -484 138 -139 282 -202 475 -207
131 -3 218 16 327 71 321 160 463 538 331 878 -25 62 -97 170 -150 224 -98 99
-233 170 -363 191 -62 11 -158 19 -163 15z"/>
</g>
</svg>
